<svg width="512" height="512" version="1.1" viewBox="0 0 512 512" xmlns="http://www.w3.org/2000/svg">
	<path fill="#3e91ff" d="M394.769 141.952c-21.692 0-41.153 4.891-58.379 14.674-5.267 2.963-10.177 6.303-14.731 10.019 7.626 9.675 11.488 21.597 11.488 35.44 0 13.623-3.673 25.217-11.070 34.414-5.639 7.22-12.918 12.645-21.584 16.373 10.173 3.545 18.772 9.55 25.43 18.183l0.006 0.006c8.183 10.404 12.322 22.509 12.322 35.978 0 16.024-4.792 29.613-14.267 40.349 3.889 3.013 8.024 5.779 12.406 8.299 17.226 9.57 36.686 14.356 58.379 14.356 26.584 0 49.339-6.911 68.267-20.735 18.928-14.036 31.582-33.177 37.963-57.422h-59.974c-4.466 9.358-10.846 16.481-19.14 21.373-8.082 4.892-17.333 7.338-27.754 7.338-16.801 0-30.411-5.85-40.832-17.547s-15.633-27.329-15.633-46.894c0-19.566 5.212-35.197 15.633-46.894s24.031-17.545 40.832-17.545c10.421 0 19.673 2.446 27.754 7.338 8.295 4.892 14.675 12.016 19.14 21.373h59.974c-6.38-24.245-19.035-43.386-37.963-57.422s-41.683-21.054-68.267-21.054z"></path>
	<path fill="#0072de" d="M93.305 141.314c-24.245 0-43.917 5.956-59.017 17.865-15.1 11.697-22.648 27.966-22.648 48.809 0 14.036 3.296 25.415 9.889 34.135s14.462 15.311 23.608 19.777c9.145 4.466 20.949 8.933 35.41 13.399 9.995 2.978 17.652 5.637 22.969 7.976 5.529 2.339 10.102 5.316 13.717 8.932 3.828 3.615 5.742 8.188 5.742 13.717 0 6.593-2.339 11.805-7.017 15.633-4.679 3.615-11.059 5.422-19.141 5.422-7.869 0-14.249-2.125-19.141-6.379-4.891-4.466-7.763-10.846-8.614-19.14h-58.060c0.425 14.675 4.467 27.221 12.123 37.642 7.869 10.421 18.288 18.291 31.261 23.608s27.647 7.974 44.023 7.974c16.801 0 31.37-3.084 43.705-9.252s21.692-14.462 28.072-24.883c6.593-10.421 9.891-22.011 9.891-34.772 0-13.399-3.298-24.351-9.891-32.858s-14.46-14.995-23.606-19.461c-8.933-4.466-20.63-9.143-35.092-14.035-14.462-4.679-25.095-9.040-31.901-13.080s-10.209-9.678-10.209-16.908c0-6.593 2.019-11.589 6.061-14.992 4.041-3.615 9.359-5.424 15.951-5.424 7.656 0 13.931 2.127 18.823 6.381 4.891 4.041 7.549 9.675 7.975 16.906h29.207v-53.107c-14.311-9.256-32.34-13.885-54.090-13.885z"></path>
	<path fill="#ff8c00" d="M153.107 144.027v99.817c7.982 4.881 15.023 11.262 20.982 18.951 8.149 10.515 11.987 23.943 11.987 38.983 0 14.457-3.852 28.087-11.405 40.051-5.409 8.815-12.698 16.306-21.565 22.375v3.769h104.317c23.394 0 41.577-5.423 54.551-16.269 13.185-11.059 19.777-25.947 19.777-44.662 0-12.973-3.934-24.457-11.803-34.453-7.869-10.209-18.291-16.694-31.264-19.459 11.485-3.403 20.63-9.464 27.435-18.184 7.018-8.72 10.527-19.673 10.527-32.859 0-17.864-6.486-32.007-19.459-42.428-12.76-10.421-30.519-15.631-53.275-15.631zM207.658 187.73h35.728c8.933 0 15.737 2.022 20.416 6.063 4.892 4.041 7.338 9.888 7.338 17.545s-2.447 13.504-7.338 17.545c-4.679 3.828-11.483 5.742-20.416 5.742h-35.728zM207.658 274.502h39.556c9.145 0 16.269 2.233 21.373 6.699 5.317 4.466 7.976 10.633 7.976 18.502s-2.552 13.93-7.656 18.183c-4.892 4.041-11.909 6.063-21.054 6.063h-40.196z"></path>
</svg>
